<svg xmlns="http://www.w3.org/2000/svg" width="2040" height="298" viewBox="0 0 2040 298" fill="none" id="svg-810799356_4216">
<g clip-path="url(#svg-810799356_4216_clip0_136_5565)">
<path d="M615.889 90.6391H450.025V81.1242C450.025 52.9821 462.845 35.5975 487.67 35.5975H590.248V0H487.67C437.204 0 408.251 31.4556 408.251 81.1242V295.124H450.025V124.58H546.818C529.858 141.136 520.372 165.55 520.372 197.006C520.372 251.645 556.764 298 608.059 298H623.007C674.749 298 710.693 253.704 710.693 194.521C710.601 136.994 680.004 90.6391 615.889 90.6391ZM622.512 261.988H608.864C583.222 261.988 563.364 233.846 563.364 194.521C563.364 155.196 583.222 127.065 608.864 127.065H622.512C648.154 127.065 667.597 155.207 667.597 194.521C667.597 233.835 648.154 261.988 622.512 261.988Z" fill="white"></path>
<path d="M863.242 201.562C863.242 234.26 843.799 260.746 820.227 260.746H805.279C785.835 260.746 771.359 241.29 771.359 215.633V93.9526H729.643V221.432C729.643 265.302 756.526 298 792.884 298H811.074C831.346 298 852.859 284.332 863.197 264.473V295.101H904.97V93.9526H863.242V201.562Z" fill="white"></path>
<path d="M273.409 0H249.837C217.159 0 191.92 18.6272 180.755 50.9112C171.246 43.0415 159.253 38.8996 144.776 38.8996H120.365C80.6613 38.8996 52.1222 71.1836 52.1222 113.822C52.1222 139.894 60.3896 159.763 76.1079 171.763C29.7809 186.663 0 233.018 0 295.101H48.8107C48.8107 245.018 71.5545 192.45 115.812 192.45H127.816V167.207L120.365 165.55C101.749 161.409 93.9189 145.681 93.9189 118.379C93.9189 91.9162 106.74 74.9228 125.356 74.9228H143.558C158.505 74.9228 169.613 86.9229 173.338 108.035C177.064 129.148 186.573 145.29 201.463 156.047C147.662 171.763 112.512 224.354 112.512 295.101H164.623C164.623 238.391 190.689 178.793 238.212 178.793H260.14V151.065L254.759 150.237C230.359 146.509 217.538 127.065 217.538 90.6391C217.538 58.7693 232.843 36.4259 253.103 36.4259H271.362C291.634 36.4259 306.11 58.7693 306.11 90.6391H349.551C349.551 42.6273 321.806 0 273.409 0Z" fill="white"></path>
<path d="M1436.93 90.6392H1421.2C1373.63 90.6392 1334.75 135.752 1334.75 193.278C1334.75 253.29 1371.98 297.977 1422.02 297.977H1436.97C1481.65 297.977 1513.49 264.45 1516.8 228.439H1476.68C1472.54 248.723 1456.41 262.379 1437.38 262.379H1422.08C1398.5 262.379 1380.68 237.539 1377.82 203.196H1518.1C1518.69 197.559 1518.97 191.893 1518.93 186.226C1518.84 139.894 1487.4 90.6392 1436.93 90.6392ZM1379.44 170.935C1385.65 142.793 1402.2 124.58 1422.87 124.58H1436.93C1460.52 124.58 1474.16 146.095 1476.65 170.935H1379.44Z" fill="white"></path>
<path d="M1044.41 90.6392H1026.21C1005.94 90.6392 984.436 104.296 974.099 124.166V93.9527H932.313V295.101H974.099V187.077C974.099 154.379 993.531 127.893 1017.11 127.893H1032C1051.44 127.893 1065.92 147.338 1065.92 173.006V295.101H1107.7V167.207C1107.7 123.337 1080.85 90.6392 1044.41 90.6392Z" fill="white"></path>
<path d="M1895.65 201.562C1895.65 234.26 1876.21 260.746 1852.63 260.746H1837.69C1818.24 260.746 1803.77 241.29 1803.77 215.633V93.9527H1699.53V91.8818C1699.53 64.5681 1711.53 50.0829 1734.28 50.0829H1755.37V14.957H1734.28C1685.47 14.957 1657.76 43.0991 1657.76 91.9393V94.0103H1624.25C1602.33 94.0103 1589.09 102.697 1580.41 122.981V93.9527H1538.62V295.101H1580.41V187.077C1580.41 150.651 1596.51 127.894 1621.8 127.894H1657.79V295.101H1699.57V127.894H1762.03V221.432C1762.03 265.302 1788.91 298 1825.27 298H1843.46C1863.73 298 1885.24 284.332 1895.58 264.473V295.101H1937.48V93.9527H1895.71L1895.65 201.562Z" fill="white"></path>
<path d="M2029.66 260.746C2014.71 260.746 2006.49 252.473 2006.49 238.391V14.957H1964.72V238.391C1964.72 277.302 1984.99 295.918 2027.18 295.918H2040V260.746H2029.66Z" fill="white"></path>
<path d="M1274.02 118.781C1262.43 102.225 1241.76 90.6392 1222.28 90.6392H1210.29C1162.72 90.6392 1126.73 135.337 1126.73 194.521C1126.73 253.704 1162.72 298 1210.29 298H1222.28C1241.31 298 1261.98 286.817 1274.02 270.261V295.101H1315.8V14.957H1274.02V118.781ZM1230.18 261.988H1216.11C1190.46 261.988 1169.79 231.775 1169.79 194.521C1169.79 157.267 1190.49 127.065 1216.11 127.065H1230.18C1257.06 127.065 1277.32 156.036 1277.32 194.521C1277.32 233.006 1257.02 261.988 1230.13 261.988H1230.18Z" fill="white"></path>
</g>
<defs>
<clipPath id="svg-810799356_4216_clip0_136_5565">
<rect width="2040" height="298" fill="white"></rect>
</clipPath>
</defs>
</svg>